<?xml version="1.0" encoding="iso-8859-1"?>
<!-- Uploaded to: SVG Repo, www.svgrepo.com, Generator: SVG Repo Mixer Tools -->
<svg height="800px" width="800px" version="1.1" id="Capa_1" xmlns="http://www.w3.org/2000/svg" xmlns:xlink="http://www.w3.org/1999/xlink" 
	 viewBox="0 0 51.432 51.432" xml:space="preserve">
<g>
	<path style="fill:#010002;" d="M50.974,27.636c-2.766,12.173-12.567,20.41-26.227,19.885c-13.53-0.52-22.411-10.464-24.165-20.515
		c-0.092-0.532,0.292-0.967,0.832-0.968c3.282-0.009,6.555-0.049,9.82,0.113c0.394,0.019,1.168,1.608,0.981,2.225
		c-0.366,1.212-1.312,2.272-1.966,3.407c-1.538,2.674-0.763,5.786,2.2,7.31c0.481,0.247,0.602,0.062,0.285-0.375
		c-2.505-3.448-0.938-6.593,1.219-9.555c0.516-0.709,0.337-2.811,0.452-2.811c12.003,0,23.859,0,35.792,0
		C50.738,26.352,51.094,27.109,50.974,27.636z M51.066,23.114c-0.529-0.267-1.06-0.521-1.597-0.537
		c-7.968-0.236-15.938-0.404-23.908-0.531c-3.893-0.062-7.789-0.019-11.684-0.012c-0.54,0.001-1.05,0.201-1.139,0.447
		s0.235,0.633,0.706,0.896c0.62,0.347,1.239,0.693,1.866,0.705c11.403,0.231,22.809,0.381,34.214,0.466
		c0.518,0.004,1.04-0.271,1.561-0.562C51.554,23.722,51.548,23.357,51.066,23.114z M29.611,6.859
		c6.446-2.238,12.597-0.182,16.362,5.471c0.413,0.62,1.072,1.076,1.723,1.538c0.44,0.313,0.684,0.159,0.522-0.356
		C45.336,4.335,33.735,0.851,26.153,6.904c-0.423,0.337-0.308,0.571,0.229,0.513C27.48,7.297,28.593,7.212,29.611,6.859z
		 M0.853,19.86c0.871-0.506,1.64-0.869,1.835-1.432c1.741-5.037,5.218-7.074,10.426-6.762c0.902,0.054,1.833-0.401,3.048-0.855
		c0.506-0.189,0.574-0.583,0.103-0.848c-6.191-3.491-15.774,1.524-16.228,9.442C0.006,19.944,0.386,20.131,0.853,19.86z
		 M13.863,19.102c-0.018,0.54,0.228,0.595,0.497,0.125c2.303-4.036,4.84-7.607,10.013-8.016c5.365-0.424,8.864,2.142,11.391,6.643
		c0.265,0.471,0.589,0.441,0.688-0.089c0.162-0.859,0.177-1.686-0.162-2.325c-3.371-6.327-12.348-8.298-18.034-3.935
		C15.779,13.405,13.973,15.795,13.863,19.102z M31.227,18.722c0.282,0.459,0.71,0.829,1.149,1.192
		c0.416,0.344,0.744,0.197,0.68-0.339c-0.475-3.989-3.635-6.547-7.44-6.635c-3.808-0.088-7.132,2.411-7.65,6.381
		c-0.07,0.536,0.263,0.691,0.686,0.355c0.413-0.328,0.814-0.666,1.085-1.085C22.799,13.858,28.274,13.923,31.227,18.722z
		 M38.842,19.324c-0.165,0.513,0.167,0.759,0.637,0.491c1.833-1.042,3.668-2.431,5.458-2.376c1.855,0.057,3.664,1.578,5.658,2.811
		c0.459,0.284,0.729,0.07,0.52-0.428c-1.231-2.932-3.926-4.636-6.732-4.409C41.521,15.646,39.576,17.025,38.842,19.324z
		 M43.864,13.121c-2.68-4.192-7.133-5.998-10.955-4.775c-0.514,0.165-0.508,0.527-0.011,0.738c3.418,1.455,6.77,2.881,10.564,4.495
		C43.957,13.792,44.154,13.576,43.864,13.121z M4.936,19.004c-0.103,0.531,0.219,0.715,0.66,0.404
		c2.373-1.679,4.621-3.27,7.198-5.093c0.441-0.31,0.363-0.617-0.177-0.643C8.278,13.468,5.641,15.376,4.936,19.004z M25.31,17.159
		c-1.056-0.019-2.125,0.651-3.193,1.314c-0.459,0.285-0.634,0.552-0.536,0.85c0.099,0.3,0.555,0.279,1.095,0.279
		c1.902,0,3.804,0,5.705,0c0.54,0,0.994,0.022,1.08-0.279c0.086-0.301-0.12-0.535-0.594-0.795
		C27.686,17.876,26.504,17.18,25.31,17.159z M9.576,23.972c0.54,0.018,0.721-0.312,0.309-0.661c-1.874-1.588-5.362-1.928-9.48-0.774
		c-0.52,0.146-0.545,0.489-0.04,0.68C3.248,24.314,6.348,23.872,9.576,23.972z"/>
</g>
</svg>