<?xml version="1.0" encoding="iso-8859-1"?>
<!-- Uploaded to: SVG Repo, www.svgrepo.com, Generator: SVG Repo Mixer Tools -->
<!DOCTYPE svg PUBLIC "-//W3C//DTD SVG 1.1//EN" "http://www.w3.org/Graphics/SVG/1.1/DTD/svg11.dtd">
<svg fill="#000000" version="1.1" id="Capa_1" xmlns="http://www.w3.org/2000/svg" xmlns:xlink="http://www.w3.org/1999/xlink" 
	 width="800px" height="800px" viewBox="0 0 142.307 142.308"
	 xml:space="preserve">
<g>
	<path d="M140.674,71.064c-1.788-1.321-4.33-0.96-5.664,0.839l-7.277,9.784c-1.202-27.923-22.639-50.659-50.008-53.839
		c0.991-1.35,1.582-2.998,1.582-4.796c0-4.504-3.649-8.153-8.155-8.153c-4.504,0-8.156,3.649-8.156,8.153
		c0,1.793,0.601,3.44,1.577,4.791c-27.166,3.153-48.486,25.578-49.966,53.217L7.182,72c-1.413-1.73-3.968-1.988-5.695-0.564
		c-1.735,1.416-1.988,3.965-0.567,5.7l11.156,13.616c-2.642,0.348-4.714,2.531-4.714,5.273c0,2.984,2.413,5.4,5.4,5.4h1.695v15.182
		h-1.685c-2.987,0-5.4,2.421-5.4,5.4c0,2.99,2.413,5.399,5.4,5.399h116.775c2.984,0,5.399-2.409,5.399-5.399
		c0-2.979-2.415-5.4-5.399-5.4h-1.688v-15.182h1.682c2.979,0,5.4-2.416,5.4-5.4c0-2.479-1.698-4.472-3.971-5.11l10.53-14.175
		C142.841,74.938,142.472,72.398,140.674,71.064z M68.509,35.479c1.493,0,2.7,1.21,2.7,2.7c0,1.489-1.208,2.7-2.7,2.7
		c-22.388,0-40.613,18.214-40.613,40.614c0,1.486-1.208,2.699-2.7,2.699c-1.49,0-2.7-1.213-2.7-2.699
		C22.504,56.117,43.142,35.479,68.509,35.479z M122.459,116.608H19.857v-15.182h102.603V116.608z"/>
</g>
</svg>